#!OML:ASF Y:\EmotionMaleHayes\Project 1\Capture day 1\Session 1\Male1.ASF
:FULLY-SPECIFIED
:DEGREES
253
root -21.6261 15.1776 -1.04441 134.808 76.0875 115.281
lowerback 19.216 -1.79418 -8.67066
upperback 8.20983 -3.1986 -1.60172
thorax -1.4059 -1.46907 3.80741
lowerneck -29.021 1.03323 -0.77122
upperneck 15.075 2.17265 -1.94353
head 9.45911 0.727423 -0.217827
rclavicle -2.34566e-014 6.75868e-015
rhumerus -90.5874 25.2035 -99.1288
rradius 67.2659
rwrist -23.5323
rhand -27.107 -27.1515
rfingers 7.12502
rthumb -0.523466 -57.1306
lclavicle -2.34566e-014 6.75868e-015
lhumerus -13.2468 -39.6169 88.4751
lradius 92.183
lwrist 6.23049
lhand -36.9513 -34.764
lfingers 7.12502
lthumb -10.0276 -5.02292
rfemur -67.3532 -17.0619 16.6458
rtibia 78.1177
rfoot -22.7209 -14.495
rtoes 7.39015
lfemur 16.5101 0.215316 -29.0122
ltibia 1.9589
lfoot -21.9542 -9.33092
ltoes -15.3971
254
root -21.3692 15.1623 -1.04994 137.978 75.9938 118.414
lowerback 19.3256 -2.03375 -8.04787
upperback 8.21523 -3.40042 -1.0642
thorax -1.44515 -1.56835 4.07436
lowerneck -29.821 1.09614 -0.758374
upperneck 15.5514 2.40949 -2.49471
head 9.77089 0.756028 -0.374949
rclavicle -2.78299e-015 -1.03368e-014
rhumerus -92.2167 25.7843 -98.7005
rradius 67.996
rwrist -22.4321
rhand -25.4239 -25.1545
rfingers 7.12502
rthumb 1.10218 -55.1314
lclavicle -2.78299e-015 -1.03368e-014
lhumerus -13.3547 -40.7021 88.1161
lradius 93.11
lwrist 5.54398
lhand -37.4632 -35.2448
lfingers 7.12502
lthumb -10.5214 -5.52809
rfemur -66.1596 -17.9654 17.5586
rtibia 78.1933
rfoot -24.787 -16.4565
rtoes 1.57277
lfemur 17.072 -1.02076 -28.6022
ltibia 2.50078
lfoot -20.8542 -8.90162
ltoes -15.1811
255
root -21.1029 15.1446 -1.0563 140.091 76.1517 120.185
lowerback 18.9862 -2.1408 -7.47084
upperback 8.1743 -3.41849 -0.594473
thorax -1.32821 -1.58771 4.24006
lowerneck -30.3899 1.11916 -0.877078
upperneck 15.8507 2.58158 -2.7812
head 9.97732 0.781772 -0.428931
rclavicle -6.55989e-014 -7.59357e-014
rhumerus -93.1419 26.0996 -97.7518
rradius 68.3153
rwrist -20.8036
rhand -24.0087 -22.084
rfingers 7.12502
rthumb 2.46899 -52.0494
lclavicle -6.55989e-014 -7.59357e-014
lhumerus -13.2872 -41.7202 87.5972
lradius 93.6915
lwrist 5.00968
lhand -37.658 -35.2264
lfingers 7.12502
lthumb -10.7094 -5.51933
rfemur -65.0999 -18.3415 18.3952
rtibia 78.1058
rfoot -25.919 -18.7271
rtoes -7.75035
lfemur 17.194 -2.02672 -28.3214
ltibia 3.26432
lfoot -19.5946 -7.80342
ltoes -17.4863
256
root -20.8204 15.129 -1.07241 140.752 76.1962 120.376
lowerback 18.3988 -2.17641 -7.12282
upperback 8.08953 -3.38165 -0.300223
thorax -1.1306 -1.5851 4.32524
lowerneck -30.5171 1.14412 -0.86125
upperneck 15.8869 2.69739 -3.12184
head 10.0201 0.791156 -0.534322
rclavicle 4.85035e-014 1.11319e-014
rhumerus -93.39 26.2548 -96.5006
rradius 68.2966
rwrist -18.5528
rhand -22.6063 -20.2344
rfingers 7.12502
rthumb 3.82328 -50.1799
lclavicle 4.85035e-014 1.11319e-014
lhumerus -14.1158 -42.5383 87.6592
lradius 94.4683
lwrist 4.62434
lhand -37.1813 -35.114
lfingers 7.12502
lthumb -10.2495 -5.38373
rfemur -63.9511 -18.5537 18.5227
rtibia 77.9327
rfoot -26.4371 -17.9483
rtoes -11.5695
lfemur 16.9341 -2.65828 -28.4545
ltibia 4.62744
lfoot -18.2299 -6.96344
ltoes -17.8125
257
root -20.5382 15.1299 -1.08338 141.183 75.9296 120.541
lowerback 18.2106 -2.20979 -6.96644
upperback 8.00416 -3.39588 -0.093048
thorax -1.12225 -1.59661 4.45354
lowerneck -30.4714 1.16969 -0.618987
upperneck 15.8638 2.7428 -3.58969
head 10.0184 0.769093 -0.733697
rclavicle 2.82274e-014 1.82882e-014
rhumerus -93.1722 26.4147 -95.4926
rradius 68.2275
rwrist -16.8739
rhand -22.0671 -19.7945
rfingers 7.12502
rthumb 4.34395 -49.73
lclavicle 2.82274e-014 1.82882e-014
lhumerus -15.4053 -43.2851 88.1265
lradius 95.1583
lwrist 4.39219
lhand -36.3458 -35.1747
lfingers 7.12502
lthumb -9.44351 -5.40626
rfemur -62.2864 -18.827 17.869
rtibia 77.6721
rfoot -28.0008 -16.2173
rtoes -8.96678
lfemur 16.5356 -3.32749 -28.7992
ltibia 6.7124
lfoot -16.7488 -6.4763
ltoes -18.3773
258
root -20.2479 15.1327 -1.08355 142.352 76.4578 121.751
lowerback 18.1456 -2.09448 -6.32688
upperback 8.1036 -3.12435 0.241836
thorax -1.04151 -1.45992 4.39707
lowerneck -30.4878 1.17523 -0.357573
upperneck 15.7871 2.73751 -3.99574
head 10.0053 0.733621 -0.922218
rclavicle -2.3059e-014 -3.97569e-015
rhumerus -92.2723 26.561 -94.6359
rradius 68.0233
rwrist -15.7393
rhand -22.0052 -19.9572
rfingers 7.12502
rthumb 4.40371 -49.8915
lclavicle -2.3059e-014 -3.97569e-015
lhumerus -16.5336 -43.8905 88.6198
lradius 95.5163
lwrist 4.46762
lhand -35.4328 -35.1114
lfingers 7.12502
lthumb -8.56243 -5.30501
rfemur -60.1475 -18.1669 17.7581
rtibia 77.0336
rfoot -29.4303 -14.1907
rtoes -5.98087
lfemur 16.2876 -3.75937 -28.2208
ltibia 8.98324
lfoot -15.1013 -5.54503
ltoes -17.9183
259
root -19.9518 15.1376 -1.06462 144.676 77.4767 124.283
lowerback 18.3132 -1.92852 -5.13574
upperback 8.19953 -2.71314 0.502945
thorax -1.13759 -1.23051 3.93542
lowerneck -30.4378 1.12873 -0.109696
upperneck 15.702 2.58651 -4.08472
head 9.96743 0.670867 -1.01888
rclavicle -1.90833e-014 4.77083e-015
rhumerus -90.8839 26.4384 -94.2133
rradius 67.5403
rwrist -15.3374
rhand -22.5049 -20.7425
rfingers 7.12502
rthumb 3.92126 -50.6862
lclavicle -1.90833e-014 4.77083e-015
lhumerus -18.1308 -44.4241 89.243
lradius 95.7598
lwrist 4.72268
lhand -34.605 -34.8028
lfingers 7.12502
lthumb -7.76354 -4.96531
rfemur -57.8893 -16.9312 18.382
rtibia 76.094
rfoot -29.7731 -13.1684
rtoes -8.6884
lfemur 15.9356 -3.67654 -26.6715
ltibia 11.5101
lfoot -12.9314 -4.68698
ltoes -16.3465
260
root -19.6622 15.1574 -1.06265 143.596 77.7497 123.055
lowerback 18.0928 -1.68125 -5.23706
upperback 8.351 -2.38167 0.683185
thorax -0.880313 -1.08181 4.11362
lowerneck -30.0524 1.14601 0.0955781
upperneck 15.1954 2.55474 -4.31333
head 9.72844 0.655891 -1.13578
rclavicle 3.65764e-014 5.40694e-014
rhumerus -88.8878 26.7851 -93.7204
rradius 67.1086
rwrist -15.7586
rhand -23.7299 -22.1428
rfingers 7.12502
rthumb 2.73819 -52.1049
lclavicle 3.65764e-014 5.40694e-014
lhumerus -19.6845 -44.4969 90.3694
lradius 95.6541
lwrist 4.83113
lhand -34.2159 -34.6228
lfingers 7.12502
lthumb -7.38794 -4.77176
rfemur -56.2737 -16.3212 17.872
rtibia 75.6885
rfoot -29.8741 -12.3802
rtoes -12.384
lfemur 14.8284 -3.80525 -26.7769
ltibia 14.7724
lfoot -10.8506 -3.71369
ltoes -16.126
261
root -19.3842 15.1994 -1.0978 136.746 76.786 115.546
lowerback 18.3668 -1.34329 -6.90034
upperback 7.92302 -2.27978 0.461507
thorax -1.40739 -1.05089 4.8216
lowerneck -29.9076 1.25022 0.243159
upperneck 15.1599 2.69699 -4.5897
head 9.70412 0.698995 -1.23415
rclavicle -1.43125e-014 -3.18055e-014
rhumerus -87.1204 27.4465 -93.3128
rradius 67.0201
rwrist -16.7076
rhand -25.2376 -23.873
rfingers 7.12502
rthumb 1.28209 -53.8489
lclavicle -1.43125e-014 -3.18055e-014
lhumerus -22.6314 -43.8672 92.8547
lradius 95.448
lwrist 4.77078
lhand -33.9646 -34.6528
lfingers 7.12502
lthumb -7.14536 -4.79345
rfemur -55.5009 -16.7474 15.3757
rtibia 75.9401
rfoot -29.791 -11.1734
rtoes -15.0626
lfemur 12.8031 -3.98851 -29.524
ltibia 18.8582
lfoot -8.23493 -2.45397
ltoes -13.4725
262
root -19.0932 15.2217 -1.09344 133.196 77.1668 111.993
lowerback 17.8509 -0.8994 -7.51792
upperback 8.40838 -1.7108 0.647397
thorax -0.650291 -0.821656 5.24451
lowerneck -29.3193 1.17028 0.227406
upperneck 14.155 2.57242 -4.68429
head 9.2494 0.659457 -1.27838
rclavicle -1.19271e-014 -1.51076e-014
rhumerus -83.8193 28.005 -92.309
rradius 66.9815
rwrist -17.9514
rhand -26.5807 -25.8233
rfingers 7.12502
rthumb -0.0150721 -55.8031
lclavicle -1.19271e-014 -1.51076e-014
lhumerus -24.3827 -43.083 94.4512
lradius 95.025
lwrist 5.09587
lhand -33.8106 -35.1441
lfingers 7.12502
lthumb -6.9967 -5.27975
rfemur -54.0378 -15.8329 14.8332
rtibia 75.6803
rfoot -29.3676 -10.4962
rtoes -17.0856
lfemur 11.2928 -3.54085 -29.7911
ltibia 22.9291
lfoot -5.54843 -1.14018
ltoes -11.6435
